<svg xmlns="http://www.w3.org/2000/svg" version="1.1" xmlns:xlink="http://www.w3.org/1999/xlink" xmlns:svgjs="http://svgjs.dev/svgjs" width="2000" height="1999" viewBox="0 0 2000 1999"><g transform="matrix(1,0,0,1,-0.431486880466764,-0.4312711370263287)"><svg viewBox="0 0 343 343" data-background-color="#1a1a1a" preserveAspectRatio="xMidYMid meet" height="1999" width="2000" xmlns="http://www.w3.org/2000/svg" xmlns:xlink="http://www.w3.org/1999/xlink"><g id="tight-bounds" transform="matrix(1,0,0,1,0.0740000000000407,0.07400000000001228)"><svg viewBox="0 0 342.85155851775386 342.85155851775386" height="342.85155851775386" width="342.85155851775386"><g><svg></svg></g><g><svg viewBox="0 0 342.85155851775386 342.85155851775386" height="342.85155851775386" width="342.85155851775386"><g><path d="M0 171.426c0-94.676 76.75-171.426 171.426-171.426 94.676 0 171.426 76.75 171.426 171.426 0 94.676-76.75 171.426-171.426 171.426-94.676 0-171.426-76.75-171.426-171.426zM171.426 336.277c91.045 0 164.851-73.806 164.851-164.851 0-91.045-73.806-164.851-164.851-164.851-91.045 0-164.851 73.806-164.851 164.851 0 91.045 73.806 164.851 164.851 164.851z" data-fill-palette-color="tertiary" fill="#01adf9" stroke="transparent"></path><ellipse rx="164.56874808852186" ry="164.56874808852186" cx="171.42577925887693" cy="171.42577925887693" fill="#01adf9" stroke="transparent" stroke-width="0" fill-opacity="1" data-fill-palette-color="tertiary"></ellipse></g><g transform="matrix(1,0,0,1,64.84655864529837,75.99176167818828)"><svg viewBox="0 0 213.1584412271571 190.8680351613773" height="190.8680351613773" width="213.1584412271571"><g><svg viewBox="0 0 213.1584412271571 190.8680351613773" height="190.8680351613773" width="213.1584412271571"><g><svg viewBox="0 0 213.1584412271571 190.8680351613773" height="190.8680351613773" width="213.1584412271571"><g transform="matrix(1,0,0,1,0,117.9641029755365)"><svg viewBox="0 0 213.1584412271571 72.90393218584077" height="72.90393218584077" width="213.1584412271571"><g id="textblocktransform"><svg viewBox="0 0 213.1584412271571 72.90393218584077" height="72.90393218584077" width="213.1584412271571" id="textblock"><g><svg viewBox="0 0 213.1584412271571 72.90393218584077" height="72.90393218584077" width="213.1584412271571"><g transform="matrix(1,0,0,1,0,0)"><svg width="213.1584412271571" viewBox="2 -41.7 165.03 56.45" height="72.90393218584077" data-palette-color="#ffffff"><path d="M22.15-36.5Q25.35-36.5 27.3-34.7 29.25-32.9 29.25-30L29.25-30Q29.25-27.7 28.03-25.25 26.8-22.8 24.8-20.95 22.8-19.1 20.6-18.45L20.6-18.45 20.1-19.35Q22.25-20.3 23.58-22.4 24.9-24.5 24.9-26.85L24.9-26.85Q24.9-29.85 23.1-31.68 21.3-33.5 18.3-33.5L18.3-33.5Q15.3-33.5 12.65-31.35 10-29.2 8.4-25.63 6.8-22.05 6.8-18L6.8-18Q6.8-13.6 8.15-10.25 9.5-6.9 11.98-5.08 14.45-3.25 17.65-3.25L17.65-3.25Q20.05-3.25 22.35-4.28 24.65-5.3 26.55-7.25L26.55-7.25 27.65-6.15Q22.35 0.55 15.1 0.55L15.1 0.55Q11.05 0.55 8.1-1.45 5.15-3.45 3.58-6.88 2-10.3 2-14.5L2-14.5Q2-20.65 4.73-25.68 7.45-30.7 12.1-33.6 16.75-36.5 22.15-36.5L22.15-36.5ZM43.3-25.45L44.2-24.4Q40.45-22 38.3-19.05 36.15-16.1 36.15-12.1L36.15-12.1Q36.15-9.85 37.1-7.58 38.05-5.3 39.95-3.8 41.85-2.3 44.5-2.3L44.5-2.3Q46.65-2.3 48.32-3.3 50-4.3 50.92-6 51.85-7.7 51.85-9.75L51.85-9.75Q51.85-12.1 50.42-14.55 49-17 46.7-18.7 44.4-20.4 42-20.6L42-20.6Q43-21.6 44.4-22.7 45.8-23.8 47.25-24.85L47.25-24.85Q50.7-23.7 52.7-20.48 54.7-17.25 54.7-13.3L54.7-13.3Q54.7-9.8 53.27-6.58 51.85-3.35 49.1-1.33 46.35 0.7 42.6 0.7L42.6 0.7Q39.6 0.7 37.07-0.78 34.55-2.25 33.1-4.8 31.65-7.35 31.65-10.45L31.65-10.45Q31.65-15.9 34.87-19.9 38.1-23.9 43.3-25.45L43.3-25.45ZM72.4-25.65Q74.8-25.65 77-24.33 79.2-23 80.34-20.75L80.34-20.75 76.75-18.8Q76-20.55 74.59-21.55 73.2-22.55 71.5-22.55L71.5-22.55Q69-22.55 67.12-20.85 65.25-19.15 64.22-16.65 63.2-14.15 63.2-11.9L63.2-11.9Q63.2-8.4 64.67-5.7 66.15-3 69.4-3L69.4-3Q73.09-3 74.5-6.33 75.9-9.65 75.9-13.5L75.9-13.5 75.9-15.75 80.4-17.6 80.4-2.3Q80.4 1.45 78.65 5.45 76.9 9.45 73.82 12.1 70.75 14.75 66.9 14.75L66.9 14.75Q64.15 14.75 62.55 12.85L62.55 12.85 66.8 9.25Q67.15 10.15 67.97 10.7 68.8 11.25 70.05 11.25L70.05 11.25Q73.8 11.25 74.92 8.47 76.05 5.7 76.05 1.5L76.05 1.5 75.9-2.6Q75.9-4.45 76.25-5.6L76.25-5.6 75.9-5.6Q74.05-2.7 72.32-1.05 70.59 0.6 68.2 0.6L68.2 0.6Q63.9 0.6 61.6-2.23 59.3-5.05 59.3-9.4L59.3-9.4Q59.3-13.65 61.02-17.38 62.75-21.1 65.77-23.38 68.8-25.65 72.4-25.65L72.4-25.65ZM88.34-34.8L92.94-36.55 92.94-26.85Q94.04-31.05 96.62-33.77 99.19-36.5 103.44-36.5L103.44-36.5Q106.44-36.5 107.99-34.45 109.54-32.4 109.54-29.35L109.54-29.35 109.54-5.35Q109.54-3.95 110.12-3.1 110.69-2.25 111.74-2.25L111.74-2.25Q112.59-2.25 113.44-2.78 114.29-3.3 114.74-4.05L114.74-4.05 115.44-3.4Q114.79-1.9 113.34-0.83 111.89 0.25 109.99 0.25L109.99 0.25Q107.69 0.25 106.29-1.33 104.89-2.9 104.89-5.9L104.89-5.9 104.89-27.35Q104.89-30.15 104.27-32 103.64-33.85 101.39-33.85L101.39-33.85Q98.54-33.85 96.64-31.03 94.74-28.2 93.84-24.4 92.94-20.6 92.94-17.85L92.94-17.85 92.94-1.2 88.34 0.65 88.34-34.8ZM123.49-41.7L121.79-30.05 120.14-29.45 118.09-39.85 123.49-41.7ZM123.44-24.8L123.44-4.2Q123.44-3.45 123.82-2.98 124.19-2.5 124.89-2.5L124.89-2.5Q125.44-2.5 126.12-3 126.79-3.5 127.49-4.45L127.49-4.45 128.29-3.7Q127.14-1.55 125.52-0.65 123.89 0.25 122.54 0.25L122.54 0.25Q120.74 0.25 119.77-0.9 118.79-2.05 118.79-4.8L118.79-4.8 118.79-23 123.44-24.8ZM144.24-30.6Q143.19-29.35 142.74-28.25 142.29-27.15 142.29-25.65L142.29-25.65 142.29-18.4 146.29-18.4Q148.94-18.4 150.51-18.98 152.09-19.55 153.44-20.55L153.44-20.55 154.19-19.8Q151.29-15.5 145.24-15.5L145.24-15.5 142.29-15.5 142.29-5.75Q142.29-1.95 141.09 0.3 139.89 2.55 137.24 4.6L137.24 4.6 136.19 3.55Q136.94 2.75 137.29 1.38 137.64 0 137.64-1.3L137.64-1.3 137.64-15.5 132.54-15.5 134.79-18.4 137.64-18.4 137.64-22.75Q137.64-24.9 138.89-26.93 140.14-28.95 141.94-30.6L141.94-30.6 135.04-30.65Q133.14-30.65 131.74-29.98 130.34-29.3 129.04-27.85L129.04-27.85 128.19-28.6Q130.64-31.65 133.39-33.3 136.14-34.95 139.04-34.95L139.04-34.95 147.59-34.95Q151.19-34.95 154.31-35.33 157.44-35.7 158.89-36.95L158.89-36.95 159.39-36.4Q157.79-34 154.99-32.3 152.19-30.6 149.69-30.6L149.69-30.6 144.24-30.6ZM167.03-36.5L167.03-0.95 162.39 0.7 162.39-34.75 167.03-36.5Z" opacity="1" transform="matrix(1,0,0,1,0,0)" fill="#ffffff" class="wordmark-text-0" data-fill-palette-color="quaternary" id="text-0"></path></svg></g></svg></g></svg></g></svg></g><g transform="matrix(1,0,0,1,56.268161810504324,0)"><svg viewBox="0 0 100.62211760614846 100.75323428083196" height="100.75323428083196" width="100.62211760614846"><g><svg xmlns="http://www.w3.org/2000/svg" xmlns:xlink="http://www.w3.org/1999/xlink" version="1.1" x="0" y="0" viewBox="0.5 0.5 70.90760312590483 71" enable-background="new 0 0 72 72" xml:space="preserve" height="100.75323428083196" width="100.62211760614846" class="icon-icon-0" data-fill-palette-color="quaternary" id="icon-0"><g fill="#ffffff" data-fill-palette-color="quaternary"><path fill="#ffffff" d="M34.8 59.1H37.9C38.1 59.1 38.3 58.9 38.3 58.7V54.6C38.3 54.4 38.4 54.3 38.6 54.2 41.4 53.9 43.7 52.9 45.3 51.2 47 49.5 47.9 47.3 47.9 44.4S47 39.3 45.3 37.7 40.9 34.6 37.3 33.2C35.4 32.4 34 31.7 33.3 30.9S32.2 29.1 32.2 27.8 32.5 25.4 33.2 24.6 34.9 23.4 36.3 23.4C37.6 23.4 38.7 23.9 39.5 25 40.2 25.9 40.6 27.3 40.7 28.9 40.7 29.2 40.9 29.4 41.2 29.4H47.1C47.4 29.4 47.7 29.1 47.7 28.8V28.7C47.6 25.8 46.8 23.5 45.3 21.7 43.7 19.8 41.6 18.7 38.9 18.2 38.7 18.2 38.5 18 38.5 17.8V13.3C38.5 13.1 38.3 12.9 38.1 12.9H35.1C34.9 12.9 34.7 13.1 34.7 13.3V17.7C34.7 17.9 34.5 18.1 34.3 18.1 31.5 18.5 29.3 19.5 27.6 21.1 25.9 22.8 25 25.1 25 27.8 25 30.7 25.9 33 27.6 34.6S32 37.7 35.6 39C37.4 39.7 38.7 40.5 39.5 41.3S40.6 43.2 40.6 44.5 40.2 46.9 39.4 47.7 37.5 48.9 36 48.9 33.2 48.4 32.2 47.5 30.7 45.2 30.7 43.2C30.7 43 30.5 42.9 30.4 42.9H24.1C23.9 42.9 23.8 43.1 23.8 43.2V44.2C24 47.2 24.9 49.5 26.7 51.1 28.6 52.9 31 53.9 33.9 54.3 34.1 54.3 34.2 54.5 34.2 54.7V58.8C34.4 59 34.6 59.1 34.8 59.1" data-fill-palette-color="quaternary"></path><path fill="#ffffff" d="M36 4.4C43.3 4.4 50.1 6.8 55.8 11.3H51.5C50.4 11.3 49.5 12.2 49.5 13.3S50.4 15.3 51.5 15.3H60.8C61.9 15.3 62.8 14.4 62.8 13.3V4C62.8 2.9 61.9 2 60.8 2S58.8 2.9 58.8 4L58.9 8.9C52.5 3.5 44.4 0.5 36 0.5 16.4 0.5 0.5 16.4 0.5 36 0.5 37.1 1.4 38 2.5 38S4.5 37.1 4.5 36C4.4 18.6 18.6 4.4 36 4.4" data-fill-palette-color="quaternary"></path><path fill="#ffffff" d="M69.5 34C68.4 34 67.5 34.9 67.5 36 67.5 53.4 53.3 67.6 35.9 67.6 28.5 67.6 21.4 65 15.7 60.3H20C21.1 60.3 22 59.4 22 58.3S21.1 56.3 20 56.3H10.7C9.6 56.3 8.7 57.2 8.7 58.3V67.6C8.7 68.7 9.6 69.6 10.7 69.6S12.7 68.7 12.7 67.6V62.9C19.1 68.5 27.4 71.5 35.9 71.5 55.5 71.5 71.4 55.6 71.4 36 71.5 34.9 70.6 34 69.5 34" data-fill-palette-color="quaternary"></path></g></svg></g></svg></g><g></g></svg></g></svg></g></svg></g></svg></g><defs></defs></svg><rect width="342.85155851775386" height="342.85155851775386" fill="none" stroke="none" visibility="hidden"></rect></g></svg></g></svg>